# xmcd
#
# Track frame offsets: 
#        150
#        11678
#        25226
#        41760
#        58440
#        71621
#        91440
#        109346
#        124602
#        139890
#        151847
#
# Disc length: 2271 seconds
#
# Revision: 0
# Processed by: cddbd v1.5.2PL0 Copyright (c) Steve Scherf et al.
# Submitted via: ExactAudioCopy v0.99pb5
#
DISCID=9a08dd0b
DTITLE=Lucky Room - Rick Taylor
DYEAR=2010
DGENRE=Blues
TTITLE0=By Myself
TTITLE1=Murmur Low
TTITLE2=Six Cold Feet of Ground
TTITLE3=I See My Baby
TTITLE4=Tough Times
TTITLE5=Blind Fiddler
TTITLE6=Monday Morning Blues
TTITLE7=Rattlesnake
TTITLE8=You Can't Live long
TTITLE9=Drop Down Mama
TTITLE10=Baby Please Don't Go
EXTD=
EXTT0=
EXTT1=
EXTT2=
EXTT3=
EXTT4=
EXTT5=
EXTT6=
EXTT7=
EXTT8=
EXTT9=
EXTT10=
PLAYORDER=
